<?xml version="1.0" standalone="no"?>
<!DOCTYPE svg PUBLIC "-//W3C//DTD SVG 20010904//EN"
 "http://www.w3.org/TR/2001/REC-SVG-20010904/DTD/svg10.dtd">
<svg version="1.0" xmlns="http://www.w3.org/2000/svg"
 width="440.000000pt" height="440.000000pt" viewBox="0 0 440.000000 440.000000"
 preserveAspectRatio="xMidYMid meet">
<metadata>
Created by potrace 1.14, written by Peter Selinger 2001-2017
</metadata>
<g transform="translate(0.000000,440.000000) scale(0.100000,-0.100000)"
fill="#000000" stroke="none">
<path d="M1224 4344 c-68 -129 -243 -337 -390 -462 -72 -61 -230 -162 -253
-162 -9 0 -44 -12 -77 -26 l-61 -26 25 -51 c13 -29 38 -81 54 -117 17 -36 66
-144 110 -240 44 -96 83 -178 87 -183 7 -6 82 21 182 66 19 8 75 31 124 50 50
19 119 46 155 60 285 111 885 285 1145 331 17 3 44 8 60 12 21 4 2 -12 -66
-58 -125 -84 -195 -136 -343 -256 -125 -100 -158 -128 -351 -301 -27 -25 -167
-162 -310 -306 -153 -154 -284 -277 -318 -298 -31 -20 -60 -37 -62 -37 -3 0
-46 -27 -97 -60 -50 -33 -94 -60 -98 -60 -25 0 -2 -56 136 -344 84 -175 156
-321 158 -324 6 -6 12 -2 148 102 138 105 407 282 603 396 158 92 489 264 635
330 41 18 93 42 115 53 26 13 36 15 29 6 -142 -179 -271 -360 -318 -444 -9
-16 -30 -50 -46 -75 -81 -127 -245 -468 -291 -605 -7 -22 -16 -44 -20 -50 -8
-12 -58 -173 -93 -300 -27 -100 -71 -312 -81 -390 -3 -27 -8 -57 -10 -65 -15
-59 -30 -331 -24 -447 2 -58 8 -62 61 -39 18 8 64 27 101 42 37 15 71 32 74
37 5 8 28 119 49 232 10 57 65 260 100 369 226 703 659 1315 1238 1749 50 38
98 74 107 80 8 7 24 17 35 24 10 7 71 45 134 85 128 81 353 197 475 245 151
58 161 62 269 78 16 2 31 7 34 10 3 2 -20 78 -50 167 l-55 163 -99 -1 c-96 0
-299 -12 -338 -20 -11 -2 -44 -6 -75 -10 -31 -3 -72 -7 -91 -9 -36 -5 -172
-25 -202 -30 -9 -2 -38 -7 -65 -11 -26 -3 -57 -8 -68 -10 -11 -2 -33 -7 -50
-9 -16 -3 -61 -12 -100 -20 -114 -23 -124 -25 -152 -30 -16 -3 -45 -10 -66
-16 -21 -6 -50 -12 -65 -14 -15 -3 -88 -21 -162 -41 -74 -20 -142 -37 -150
-39 -8 -2 -15 -4 -15 -5 0 -1 -7 -3 -15 -5 -25 -6 -244 -72 -262 -80 -10 -4
-18 -5 -18 -2 0 12 401 287 419 287 5 0 11 4 13 8 4 12 212 129 353 200 108
54 142 70 250 116 17 8 64 26 105 41 41 15 91 33 111 40 79 30 226 63 262 59
20 -3 37 -1 37 4 0 10 -116 352 -122 357 -5 6 -55 14 -118 19 -339 29 -924 25
-1280 -8 -36 -4 -87 -9 -115 -11 -65 -6 -131 -14 -175 -21 -19 -3 -42 -5 -50
-6 -8 0 -53 -6 -100 -13 -47 -8 -105 -17 -130 -21 -70 -10 -80 -12 -169 -28
-46 -9 -91 -18 -100 -21 -19 -5 -91 -15 -91 -11 0 1 15 38 34 82 30 68 86 241
86 264 0 8 -14 15 -122 64 -111 51 -102 51 -134 -10z"/>
</g>
</svg>
